<mxfile host="app.diagrams.net" modified="2022-07-26T02:44:01.325Z" agent="5.0 (Macintosh)" etag="Vn4-958wzZKB2L9sy8I7" version="20.2.0" type="github">
  <diagram id="tFBmUhOzEIxHrRSv1Gjg" name="Page-1">
    <mxGraphModel dx="1577" dy="869" grid="1" gridSize="10" guides="1" tooltips="1" connect="1" arrows="1" fold="1" page="1" pageScale="1" pageWidth="850" pageHeight="1100" math="0" shadow="0">
      <root>
        <mxCell id="0" />
        <mxCell id="1" parent="0" />
        <mxCell id="GfqcopEs4XKSiGRYqiB3-7" value="" style="rounded=1;arcSize=10;dashed=1;strokeColor=#F59D56;fillColor=none;gradientColor=none;dashPattern=8 4;strokeWidth=2;" vertex="1" parent="1">
          <mxGeometry x="267" y="320.25" width="238" height="249.75" as="geometry" />
        </mxCell>
        <mxCell id="GfqcopEs4XKSiGRYqiB3-2" value="" style="rounded=1;arcSize=10;dashed=0;fillColor=none;gradientColor=none;strokeWidth=2;" vertex="1" parent="1">
          <mxGeometry x="170" y="140" width="670" height="620" as="geometry" />
        </mxCell>
        <mxCell id="GfqcopEs4XKSiGRYqiB3-3" value="" style="dashed=0;html=1;shape=mxgraph.aws3.cloud;fillColor=#F58536;gradientColor=none;dashed=0;" vertex="1" parent="1">
          <mxGeometry x="190" y="120" width="52" height="36" as="geometry" />
        </mxCell>
        <mxCell id="GfqcopEs4XKSiGRYqiB3-4" value="" style="rounded=1;arcSize=10;dashed=0;fillColor=none;gradientColor=none;strokeWidth=2;" vertex="1" parent="1">
          <mxGeometry x="210" y="200" width="580" height="440" as="geometry" />
        </mxCell>
        <mxCell id="GfqcopEs4XKSiGRYqiB3-5" value="" style="dashed=0;html=1;shape=mxgraph.aws3.virtual_private_cloud;fillColor=#F58536;gradientColor=none;dashed=0;" vertex="1" parent="1">
          <mxGeometry x="230" y="180" width="52" height="36" as="geometry" />
        </mxCell>
        <mxCell id="GfqcopEs4XKSiGRYqiB3-6" value="Auto Scaling group" style="points=[[0,0],[0.25,0],[0.5,0],[0.75,0],[1,0],[1,0.25],[1,0.5],[1,0.75],[1,1],[0.75,1],[0.5,1],[0.25,1],[0,1],[0,0.75],[0,0.5],[0,0.25]];outlineConnect=0;gradientColor=none;html=1;whiteSpace=wrap;fontSize=12;fontStyle=0;container=1;pointerEvents=0;collapsible=0;recursiveResize=0;shape=mxgraph.aws4.groupCenter;grIcon=mxgraph.aws4.group_auto_scaling_group;grStroke=1;strokeColor=#D86613;fillColor=none;verticalAlign=top;align=center;fontColor=#D86613;dashed=1;spacingTop=25;" vertex="1" parent="1">
          <mxGeometry x="242" y="240" width="518" height="370" as="geometry" />
        </mxCell>
        <mxCell id="GfqcopEs4XKSiGRYqiB3-8" value="" style="rounded=1;arcSize=10;dashed=1;strokeColor=#F59D56;fillColor=none;gradientColor=none;dashPattern=8 4;strokeWidth=2;" vertex="1" parent="1">
          <mxGeometry x="526" y="320.25" width="238" height="249.75" as="geometry" />
        </mxCell>
        <mxCell id="GfqcopEs4XKSiGRYqiB3-9" value="&lt;b&gt;AZ1&lt;br&gt;&lt;/b&gt;" style="text;html=1;resizable=0;autosize=1;align=center;verticalAlign=middle;points=[];fillColor=none;strokeColor=none;rounded=0;" vertex="1" parent="1">
          <mxGeometry x="361" y="330" width="50" height="30" as="geometry" />
        </mxCell>
        <mxCell id="GfqcopEs4XKSiGRYqiB3-10" value="&lt;b&gt;AZ2&lt;/b&gt;" style="text;html=1;resizable=0;autosize=1;align=center;verticalAlign=middle;points=[];fillColor=none;strokeColor=none;rounded=0;" vertex="1" parent="1">
          <mxGeometry x="630" y="330" width="50" height="30" as="geometry" />
        </mxCell>
        <mxCell id="GfqcopEs4XKSiGRYqiB3-14" value="Public subnet" style="points=[[0,0],[0.25,0],[0.5,0],[0.75,0],[1,0],[1,0.25],[1,0.5],[1,0.75],[1,1],[0.75,1],[0.5,1],[0.25,1],[0,1],[0,0.75],[0,0.5],[0,0.25]];outlineConnect=0;gradientColor=none;html=1;whiteSpace=wrap;fontSize=12;fontStyle=0;container=1;pointerEvents=0;collapsible=0;recursiveResize=0;shape=mxgraph.aws4.group;grIcon=mxgraph.aws4.group_security_group;grStroke=0;strokeColor=#248814;fillColor=#E9F3E6;verticalAlign=top;align=left;spacingLeft=30;fontColor=#248814;dashed=0;" vertex="1" parent="1">
          <mxGeometry x="289" y="360" width="198" height="190" as="geometry" />
        </mxCell>
        <mxCell id="GfqcopEs4XKSiGRYqiB3-19" value="Public subnet" style="points=[[0,0],[0.25,0],[0.5,0],[0.75,0],[1,0],[1,0.25],[1,0.5],[1,0.75],[1,1],[0.75,1],[0.5,1],[0.25,1],[0,1],[0,0.75],[0,0.5],[0,0.25]];outlineConnect=0;gradientColor=none;html=1;whiteSpace=wrap;fontSize=12;fontStyle=0;container=1;pointerEvents=0;collapsible=0;recursiveResize=0;shape=mxgraph.aws4.group;grIcon=mxgraph.aws4.group_security_group;grStroke=0;strokeColor=#248814;fillColor=#E9F3E6;verticalAlign=top;align=left;spacingLeft=30;fontColor=#248814;dashed=0;" vertex="1" parent="1">
          <mxGeometry x="550" y="360" width="190" height="190" as="geometry" />
        </mxCell>
        <mxCell id="GfqcopEs4XKSiGRYqiB3-20" value="EC2 Instances" style="sketch=0;points=[[0,0,0],[0.25,0,0],[0.5,0,0],[0.75,0,0],[1,0,0],[0,1,0],[0.25,1,0],[0.5,1,0],[0.75,1,0],[1,1,0],[0,0.25,0],[0,0.5,0],[0,0.75,0],[1,0.25,0],[1,0.5,0],[1,0.75,0]];outlineConnect=0;fontColor=#232F3E;gradientColor=#F78E04;gradientDirection=north;fillColor=#D05C17;strokeColor=#ffffff;dashed=0;verticalLabelPosition=bottom;verticalAlign=top;align=center;html=1;fontSize=12;fontStyle=0;aspect=fixed;shape=mxgraph.aws4.resourceIcon;resIcon=mxgraph.aws4.ec2;" vertex="1" parent="1">
          <mxGeometry x="349" y="416" width="78" height="78" as="geometry" />
        </mxCell>
        <mxCell id="GfqcopEs4XKSiGRYqiB3-21" value="EC2 Instances" style="sketch=0;points=[[0,0,0],[0.25,0,0],[0.5,0,0],[0.75,0,0],[1,0,0],[0,1,0],[0.25,1,0],[0.5,1,0],[0.75,1,0],[1,1,0],[0,0.25,0],[0,0.5,0],[0,0.75,0],[1,0.25,0],[1,0.5,0],[1,0.75,0]];outlineConnect=0;fontColor=#232F3E;gradientColor=#F78E04;gradientDirection=north;fillColor=#D05C17;strokeColor=#ffffff;dashed=0;verticalLabelPosition=bottom;verticalAlign=top;align=center;html=1;fontSize=12;fontStyle=0;aspect=fixed;shape=mxgraph.aws4.resourceIcon;resIcon=mxgraph.aws4.ec2;" vertex="1" parent="1">
          <mxGeometry x="606" y="416.13" width="78" height="78" as="geometry" />
        </mxCell>
        <mxCell id="GfqcopEs4XKSiGRYqiB3-23" value="" style="edgeStyle=orthogonalEdgeStyle;rounded=0;orthogonalLoop=1;jettySize=auto;html=1;entryX=0.5;entryY=1;entryDx=0;entryDy=0;" edge="1" parent="1" source="GfqcopEs4XKSiGRYqiB3-22" target="GfqcopEs4XKSiGRYqiB3-8">
          <mxGeometry relative="1" as="geometry">
            <Array as="points">
              <mxPoint x="513" y="610" />
              <mxPoint x="645" y="610" />
            </Array>
          </mxGeometry>
        </mxCell>
        <mxCell id="GfqcopEs4XKSiGRYqiB3-26" value="" style="edgeStyle=orthogonalEdgeStyle;rounded=0;orthogonalLoop=1;jettySize=auto;html=1;" edge="1" parent="1" source="GfqcopEs4XKSiGRYqiB3-22">
          <mxGeometry relative="1" as="geometry">
            <mxPoint x="390" y="570" as="targetPoint" />
            <Array as="points">
              <mxPoint x="513" y="610" />
              <mxPoint x="390" y="610" />
            </Array>
          </mxGeometry>
        </mxCell>
        <mxCell id="GfqcopEs4XKSiGRYqiB3-22" value="ELB" style="sketch=0;points=[[0,0,0],[0.25,0,0],[0.5,0,0],[0.75,0,0],[1,0,0],[0,1,0],[0.25,1,0],[0.5,1,0],[0.75,1,0],[1,1,0],[0,0.25,0],[0,0.5,0],[0,0.75,0],[1,0.25,0],[1,0.5,0],[1,0.75,0]];outlineConnect=0;fontColor=#232F3E;gradientColor=#F78E04;gradientDirection=north;fillColor=#D05C17;strokeColor=#ffffff;dashed=0;verticalLabelPosition=bottom;verticalAlign=top;align=center;html=1;fontSize=12;fontStyle=0;aspect=fixed;shape=mxgraph.aws4.resourceIcon;resIcon=mxgraph.aws4.elastic_load_balancing;" vertex="1" parent="1">
          <mxGeometry x="474" y="657" width="78" height="78" as="geometry" />
        </mxCell>
        <mxCell id="GfqcopEs4XKSiGRYqiB3-28" value="" style="edgeStyle=orthogonalEdgeStyle;rounded=0;orthogonalLoop=1;jettySize=auto;html=1;" edge="1" parent="1" source="GfqcopEs4XKSiGRYqiB3-27" target="GfqcopEs4XKSiGRYqiB3-22">
          <mxGeometry relative="1" as="geometry" />
        </mxCell>
        <mxCell id="GfqcopEs4XKSiGRYqiB3-29" value="HTTP Requests" style="edgeLabel;html=1;align=center;verticalAlign=middle;resizable=0;points=[];" vertex="1" connectable="0" parent="GfqcopEs4XKSiGRYqiB3-28">
          <mxGeometry x="0.1884" y="2" relative="1" as="geometry">
            <mxPoint as="offset" />
          </mxGeometry>
        </mxCell>
        <mxCell id="GfqcopEs4XKSiGRYqiB3-27" value="&lt;div&gt;Client&lt;/div&gt;" style="sketch=0;outlineConnect=0;fontColor=#232F3E;gradientColor=none;fillColor=#232F3D;strokeColor=none;dashed=0;verticalLabelPosition=bottom;verticalAlign=top;align=center;html=1;fontSize=12;fontStyle=0;aspect=fixed;pointerEvents=1;shape=mxgraph.aws4.client;" vertex="1" parent="1">
          <mxGeometry x="40" y="659" width="78" height="76" as="geometry" />
        </mxCell>
      </root>
    </mxGraphModel>
  </diagram>
</mxfile>
